<?xml version="1.0" encoding="utf-8"?>
<!-- Generator: Adobe Illustrator 16.0.0, SVG Export Plug-In . SVG Version: 6.00 Build 0)  -->
<!DOCTYPE svg PUBLIC "-//W3C//DTD SVG 1.1//EN" "http://www.w3.org/Graphics/SVG/1.1/DTD/svg11.dtd">
<svg version="1.1" id="Capa_1" xmlns="http://www.w3.org/2000/svg" xmlns:xlink="http://www.w3.org/1999/xlink" x="0px" y="0px"
	 width="30.24px" height="30.24px" viewBox="0 0 30.24 30.24" enable-background="new 0 0 30.24 30.24" xml:space="preserve">
<g>
	<path fill="#5E6053" d="M24.24,0.24h-18c-3.313,0-6,2.687-6,6v18c0,3.313,2.687,6,6,6h9V18.906h-3.667v-5h3.667v-1.948
		c0-3.36,2.522-6.386,5.625-6.386h4.042v5h-4.042c-0.443,0-0.959,0.537-0.959,1.341v1.992h5v5h-5V30.24h4.333c3.313,0,6-2.687,6-6
		v-18C30.24,2.926,27.553,0.24,24.24,0.24z"/>
</g>
</svg>
