<?xml version="1.0" encoding="utf-8"?>
<!-- Generator: Adobe Illustrator 16.0.0, SVG Export Plug-In . SVG Version: 6.00 Build 0)  -->
<!DOCTYPE svg PUBLIC "-//W3C//DTD SVG 1.1//EN" "http://www.w3.org/Graphics/SVG/1.1/DTD/svg11.dtd">
<svg version="1.1" id="Capa_1" xmlns="http://www.w3.org/2000/svg" xmlns:xlink="http://www.w3.org/1999/xlink" x="0px" y="0px"
	 width="51.61px" height="50px" viewBox="0 0 51.61 50" enable-background="new 0 0 51.61 50" xml:space="preserve">
<g>
	<path fill-rule="evenodd" clip-rule="evenodd" fill="#61E2FE" d="M25.806,0.373c-13.944,0-25.25,11.305-25.25,25.25
		c0,11.157,7.235,20.622,17.268,23.962c1.262,0.233,1.725-0.548,1.725-1.216c0-0.602-0.023-2.59-0.034-4.701
		c-7.025,1.526-8.507-2.979-8.507-2.979c-1.148-2.919-2.803-3.695-2.803-3.695c-2.292-1.567,0.172-1.535,0.172-1.535
		c2.535,0.177,3.871,2.602,3.871,2.602c2.252,3.861,5.908,2.745,7.349,2.1c0.226-1.633,0.881-2.747,1.603-3.377
		c-5.608-0.638-11.504-2.804-11.504-12.479c0-2.757,0.986-5.009,2.602-6.778c-0.262-0.636-1.127-3.204,0.245-6.682
		c0,0,2.121-0.678,6.946,2.589c2.014-0.56,4.174-0.84,6.32-0.851c2.146,0.011,4.308,0.291,6.326,0.851
		c4.819-3.267,6.938-2.589,6.938-2.589c1.374,3.478,0.51,6.046,0.248,6.682c1.619,1.769,2.599,4.021,2.599,6.778
		c0,9.698-5.908,11.833-11.531,12.459c0.906,0.784,1.713,2.321,1.713,4.676c0,3.378-0.03,6.098-0.03,6.929
		c0,0.672,0.456,1.459,1.735,1.212c10.027-3.343,17.254-12.806,17.254-23.958C51.057,11.678,39.751,0.373,25.806,0.373z"/>
	<path fill="#61E2FE" d="M10.119,36.627c-0.055,0.126-0.253,0.164-0.433,0.078c-0.183-0.083-0.286-0.253-0.227-0.379
		c0.054-0.129,0.252-0.165,0.434-0.08C10.078,36.33,10.182,36.502,10.119,36.627L10.119,36.627z M9.808,36.398"/>
	<path fill="#61E2FE" d="M11.141,37.769c-0.12,0.11-0.355,0.059-0.516-0.117c-0.165-0.177-0.195-0.411-0.074-0.526
		c0.125-0.11,0.353-0.058,0.518,0.117C11.235,37.421,11.267,37.656,11.141,37.769L11.141,37.769z M10.901,37.509"/>
	<path fill="#61E2FE" d="M12.137,39.222c-0.155,0.107-0.408,0.007-0.564-0.218c-0.155-0.224-0.155-0.493,0.004-0.602
		c0.156-0.106,0.406-0.01,0.564,0.212C12.295,38.844,12.295,39.112,12.137,39.222L12.137,39.222z M12.137,39.222"/>
	<path fill="#61E2FE" d="M13.501,40.627c-0.138,0.153-0.434,0.112-0.649-0.096c-0.221-0.204-0.282-0.493-0.143-0.646
		c0.14-0.153,0.437-0.109,0.654,0.098C13.582,40.186,13.649,40.477,13.501,40.627L13.501,40.627z M13.501,40.627"/>
	<path fill="#61E2FE" d="M15.383,41.443c-0.061,0.198-0.346,0.287-0.631,0.204c-0.286-0.086-0.472-0.319-0.416-0.518
		c0.06-0.199,0.346-0.292,0.633-0.203C15.255,41.013,15.442,41.242,15.383,41.443L15.383,41.443z M15.383,41.443"/>
	<path fill="#61E2FE" d="M17.449,41.596c0.008,0.208-0.234,0.38-0.535,0.384c-0.301,0.007-0.546-0.163-0.55-0.368
		c0-0.21,0.237-0.38,0.54-0.386C17.203,41.222,17.449,41.389,17.449,41.596L17.449,41.596z M17.449,41.596"/>
	<path fill="#61E2FE" d="M19.372,41.268c0.036,0.203-0.172,0.411-0.471,0.467c-0.293,0.054-0.565-0.073-0.602-0.273
		c-0.037-0.209,0.176-0.417,0.469-0.471C19.066,40.939,19.334,41.061,19.372,41.268L19.372,41.268z M19.372,41.268"/>
</g>
</svg>
