<?xml version="1.0" encoding="utf-8"?>
<!-- Generator: Adobe Illustrator 19.0.0, SVG Export Plug-In . SVG Version: 6.00 Build 0)  -->
<svg version="1.1" id="Layer_1" xmlns="http://www.w3.org/2000/svg" xmlns:xlink="http://www.w3.org/1999/xlink" x="0px" y="0px"
	 viewBox="0 0 199.5 48.6" style="enable-background:new 0 0 199.5 48.6;" xml:space="preserve">
<style type="text/css">
	.st0{fill:#EAEAEA;}
	.st1{fill:#EAECED;}
</style>
<path id="XMLID_125_" class="st0" d="M6.8,47.4V6.5H2.3V0h16.9v6.5h-4.4v40.9H6.8z"/>
<path id="XMLID_129_" class="st0" d="M20.7,47.4V0h10.8c1.8,0,3.1,0.1,4,0.3c0.9,0.2,1.6,0.6,2.2,1.2c0.8,0.7,1.3,1.6,1.6,2.6
	c0.3,1,0.4,2.8,0.4,5.1v8.5c0,1.9-0.2,3.3-0.6,4.1c-0.4,0.8-1.4,1.6-2.8,2.3c1.2,0.4,2.1,1.1,2.7,2c0.5,0.9,0.8,2.2,0.8,3.9v17.5
	h-8.2V29.7c0-0.9-0.1-1.6-0.4-1.9c-0.3-0.3-0.8-0.5-1.6-0.5h-0.7v20.1H20.7z M28.8,6.4v14.4c0.2,0,0.4,0.1,0.6,0.1
	c0.9,0,1.5-0.2,1.7-0.6c0.2-0.4,0.4-1.2,0.4-2.6V9.2c0-1.1-0.1-1.8-0.4-2.2c-0.2-0.4-0.7-0.6-1.3-0.6H28.8z"/>
<path id="XMLID_130_" class="st0" d="M40.9,47.4L44.9,0h10.9L61,47.4H53l-0.6-9.9h-3.6l-0.6,9.9H40.9z M49,31.2h2.8L50.2,9L49,31.2z
	"/>
<path id="XMLID_128_" class="st0" d="M62,47.4V0h8.1v47.4H62z"/>
<path id="XMLID_126_" class="st0" d="M84.9,41v6.4h-13V0h8v41H84.9z"/>
<path id="XMLID_141_" class="st0" d="M89.9,47.4L81.5,0h9.6c2.4,0,4.1,0.1,5.1,0.4c1,0.2,1.9,0.7,2.8,1.5c0.8,0.7,1.4,1.4,1.8,2.3
	c0.4,0.9,0.7,2.3,1.1,4.2l1.3,7.5c0.3,1.6,0.3,2.9,0,3.8c-0.3,0.9-1,1.7-2.2,2.5c1.4,0.5,2.4,1.2,3,2.1c0.6,0.9,1.1,2.3,1.5,4.2
	l2,11.6c0.3,1.8,0.3,3.3,0,4.3c-0.3,1.1-1,1.9-2.1,2.3c-1.1,0.5-2.6,0.7-4.6,0.7H89.9z M93,18.8l0.8,0.1c0.6,0,1-0.1,1.2-0.2
	c0.2-0.1,0.4-0.3,0.4-0.7c0.1-0.3,0-0.9-0.1-1.6l-1.2-7c-0.2-1.3-0.5-2.1-0.8-2.4c-0.3-0.4-0.9-0.5-1.8-0.5h-0.7L93,18.8z
	 M94.1,25.3l2.8,15.8c0.2,0,0.6,0.1,0.9,0.1c0.8,0,1.3-0.2,1.4-0.5c0.2-0.3,0.1-1.1-0.1-2.2l-1.8-10.3c-0.2-1.3-0.5-2.1-0.8-2.4
	c-0.3-0.3-0.9-0.5-1.9-0.5H94.1z"/>
<path id="XMLID_124_" class="st0" d="M122.4,41v6.4h-13V0h8v41H122.4z"/>
<path id="XMLID_136_" class="st0" d="M123.6,47.4L127.5,0h10.9l5.2,47.4h-8.1l-0.6-9.9h-3.6l-0.6,9.9H123.6z M131.7,31.2h2.8
	L132.8,9L131.7,31.2z"/>
<path id="XMLID_134_" class="st0" d="M143.1,47.4v-5.8l8.2-35h-7.5V0h15.7v6.2L151.3,41h8.2v6.4H143.1z"/>
<path id="XMLID_132_" class="st0" d="M161.3,47.4V0h13.2v6.5h-5.1v11.9h5.1v6.4h-5.1v16.4h5.1v6.3H161.3z"/>
<path id="XMLID_127_" class="st0" d="M176,47.4V0h10.8c1.8,0,3.1,0.1,4,0.3c0.9,0.2,1.6,0.6,2.2,1.2c0.8,0.7,1.3,1.6,1.6,2.6
	c0.3,1,0.4,2.8,0.4,5.1v8.5c0,1.9-0.2,3.3-0.6,4.1c-0.4,0.8-1.4,1.6-2.8,2.3c1.2,0.4,2.1,1.1,2.7,2c0.5,0.9,0.8,2.2,0.8,3.9v17.5
	h-8.2V29.7c0-0.9-0.1-1.6-0.4-1.9c-0.3-0.3-0.8-0.5-1.6-0.5h-0.7v20.1H176z M184.1,6.4v14.4c0.2,0,0.4,0.1,0.6,0.1
	c0.9,0,1.5-0.2,1.7-0.6c0.2-0.4,0.4-1.2,0.4-2.6V9.2c0-1.1-0.1-1.8-0.4-2.2c-0.2-0.4-0.7-0.6-1.3-0.6H184.1z"/>
<rect id="XMLID_19_" x="-374.2" y="80.4" class="st1" width="56" height="56"/>
</svg>
