<?xml version="1.0" encoding="UTF-8" standalone="no"?>
<!-- Generator: Adobe Illustrator 19.0.0, SVG Export Plug-In . SVG Version: 6.00 Build 0)  -->

<svg
   xmlns:dc="http://purl.org/dc/elements/1.1/"
   xmlns:cc="http://creativecommons.org/ns#"
   xmlns:rdf="http://www.w3.org/1999/02/22-rdf-syntax-ns#"
   xmlns:svg="http://www.w3.org/2000/svg"
   xmlns="http://www.w3.org/2000/svg"
   xmlns:sodipodi="http://sodipodi.sourceforge.net/DTD/sodipodi-0.dtd"
   xmlns:inkscape="http://www.inkscape.org/namespaces/inkscape"
   version="1.1"
   id="Layer_1"
   x="0px"
   y="0px"
   viewBox="-205 372.4 126.7 31.205049"
   xml:space="preserve"
   inkscape:version="0.91 r13725"
   sodipodi:docname="logo-top.svg"
   width="126.7"
   height="31.20505"><metadata
     id="metadata20"><rdf:RDF><cc:Work
         rdf:about=""><dc:format>image/svg+xml</dc:format><dc:type
           rdf:resource="http://purl.org/dc/dcmitype/StillImage" /><dc:title></dc:title></cc:Work></rdf:RDF></metadata><defs
     id="defs18" /><sodipodi:namedview
     pagecolor="#ffffff"
     bordercolor="#666666"
     borderopacity="1"
     objecttolerance="10"
     gridtolerance="10"
     guidetolerance="10"
     inkscape:pageopacity="0"
     inkscape:pageshadow="2"
     inkscape:window-width="1314"
     inkscape:window-height="653"
     id="namedview16"
     showgrid="false"
     inkscape:zoom="6.4242569"
     inkscape:cx="71.16515"
     inkscape:cy="3.3556599"
     inkscape:window-x="0"
     inkscape:window-y="0"
     inkscape:window-maximized="0"
     inkscape:current-layer="Layer_1"
     fit-margin-top="0"
     fit-margin-left="0"
     fit-margin-right="0"
     fit-margin-bottom="0" /><style
     type="text/css"
     id="style3">
	.st0{fill:#EFEFEF;}
</style><path
     id="XMLID_125_"
     class="st0"
     d="m -202,403.60504 0,-26.95505 -3,0 0,-4.25 11.1,0 0,4.25 -2.9,0 0,26.95505 z"
     inkscape:connector-curvature="0"
     style="fill:#efefef"
     sodipodi:nodetypes="ccccccccc" /><path
     id="XMLID_129_"
     class="st0"
     d="m -192.9,403.60504 0,-31.20505 7.1,0 c 1.2,0 2,0.15 2.6,0.25 0.6,0.1 1.1,0.4 1.4,0.8 0.5,0.5 0.9,1.1 1.1,1.7 0.2,0.6 0.3,1.8 0.3,3.3 l 0,5.6 c 0,1.2 -0.1,2.2 -0.4,2.7 -0.3,0.5 -0.9,1.1 -1.8,1.5 0.8,0.3 1.4,0.7 1.8,1.3 0.3,0.6 0.5,1.4 0.5,2.6 l 0,11.45505 -5.4,0 0,-11.65505 c 0,-0.6 -0.1,-1.1 -0.3,-1.2 -0.2,-0.1 -0.5,-0.3 -1.1,-0.3 l -0.5,0 0,13.15505 -5.3,0 z m 5.3,-26.95505 0,9.5 c 0.1,0 0.3,0.1 0.4,0.1 0.6,0 1,-0.1 1.1,-0.4 0.1,-0.3 0.3,-0.8 0.3,-1.7 l 0,-5.6 c 0,-0.7 -0.1,-1.2 -0.3,-1.4 -0.1,-0.3 -0.5,-0.4 -0.9,-0.4 l -0.6,0 z"
     inkscape:connector-curvature="0"
     style="fill:#efefef"
     sodipodi:nodetypes="ccsscssssccsccsssccccccsssscscc" /><path
     id="XMLID_130_"
     class="st0"
     d="m -179.6,403.60504 2.6,-31.20505 7.2,0 3.4,31.20505 -5.3,0 -0.4,-6.55505 -2.4,0 -0.4,6.55505 z m 5.3,-10.65505 1.8,0 -1.1,-14.6 z"
     inkscape:connector-curvature="0"
     style="fill:#efefef"
     sodipodi:nodetypes="ccccccccccccc" /><path
     id="XMLID_128_"
     class="st0"
     d="m -165.8,403.60504 0,-31.20505 5.3,0 0,31.20505 z"
     inkscape:connector-curvature="0"
     style="fill:#efefef"
     sodipodi:nodetypes="ccccc" /><path
     id="XMLID_126_"
     class="st0"
     d="m -150.7,399.34999 0,4.25505 -8.5,0 0,-31.20505 5.3,0 0,26.95 z"
     inkscape:connector-curvature="0"
     style="fill:#efefef"
     sodipodi:nodetypes="ccccccc" /><path
     id="XMLID_141_"
     class="st0"
     d="m -147.5,403.60504 -5.5,-31.20505 6.3,0 c 1.6,0 2.7,0.15 3.3,0.35 0.7,0.1 1.2,0.5 1.8,1 0.5,0.5 0.9,0.9 1.2,1.5 0.3,0.6 0.5,1.5 0.7,2.8 l 0.9,4.9 c 0.2,1.1 0.2,1.9 0,2.5 -0.2,0.6 -0.7,1.1 -1.4,1.6 0.9,0.3 1.6,0.8 2,1.4 0.4,0.6 0.7,1.5 1,2.8 l 1.3,7.6 c 0.2,1.2 0.2,2.2 0,2.8 -0.2,0.7 -0.7,1.2 -1.4,1.5 -0.7,0.3 -1.7,0.45505 -3,0.45505 0,-0.1 -7.2,0 -7.2,0 z m 2.1,-18.85505 0.5,0.1 c 0.4,0 0.7,-0.1 0.8,-0.1 0.1,-0.1 0.3,-0.2 0.3,-0.5 0.1,-0.2 0,-0.6 -0.1,-1.1 l -0.8,-4.6 c -0.1,-0.9 -0.3,-1.4 -0.5,-1.6 -0.2,-0.3 -0.6,-0.3 -1.2,-0.3 l -0.5,0 z m 0.7,4.3 1.8,10.4 c 0.1,0 0.4,0.1 0.6,0.1 0.5,0 0.9,-0.1 0.9,-0.3 0.1,-0.2 0.1,-0.7 -0.1,-1.4 l -1.2,-6.8 c -0.1,-0.9 -0.3,-1.4 -0.5,-1.6 -0.2,-0.2 -0.6,-0.3 -1.2,-0.3 0,-0.1 -0.3,-0.1 -0.3,-0.1 z"
     inkscape:connector-curvature="0"
     style="fill:#efefef"
     sodipodi:nodetypes="ccsccsccscscccscccccccccsccccscccscc" /><path
     id="XMLID_124_"
     class="st0"
     d="m -126.1,399.34999 0,4.25505 -8.5,0 0,-31.20505 5.3,0 0,26.95 z"
     inkscape:connector-curvature="0"
     style="fill:#efefef"
     sodipodi:nodetypes="ccccccc" /><path
     id="XMLID_136_"
     class="st0"
     d="m -125.3,403.60504 2.6,-31.20505 7.2,0 3.4,31.20505 -5.3,0 -0.4,-6.55505 -2.4,0 -0.4,6.55505 z m 5.3,-10.65505 1.8,0 -1.1,-14.6 z"
     inkscape:connector-curvature="0"
     style="fill:#efefef"
     sodipodi:nodetypes="ccccccccccccc" /><path
     id="XMLID_134_"
     class="st0"
     d="m -112.5,403.60504 0,-3.85505 5.4,-23 -4.9,0 0,-4.35 10.3,0 0,4.15 -5.4,22.9 5.4,0 0,4.15505 -10.8,0 z"
     inkscape:connector-curvature="0"
     style="fill:#efefef"
     sodipodi:nodetypes="cccccccccccc" /><path
     id="XMLID_132_"
     class="st0"
     d="m -100.6,403.60504 0,-31.20505 8.7,0 0,4.35 -3.3,0 0,7.8 3.3,0 0,4.2 -3.3,0 0,10.8 3.3,0 0,4.05505 -8.7,0 z"
     inkscape:connector-curvature="0"
     style="fill:#efefef"
     sodipodi:nodetypes="cccccccccccccc" /><path
     id="XMLID_127_"
     class="st0"
     d="m -90.9,403.60504 0,-31.20505 7.1,0 c 1.2,0 2,0.15 2.6,0.25 0.6,0.1 1.1,0.4 1.4,0.8 0.5,0.5 0.9,1.1 1.1,1.7 0.2,0.7 0.3,1.8 0.3,3.3 l 0,5.6 c 0,1.2 -0.1,2.2 -0.4,2.7 -0.3,0.5 -0.9,1.1 -1.8,1.5 0.8,0.3 1.4,0.7 1.8,1.3 0.3,0.6 0.5,1.4 0.5,2.6 l 0,11.45505 -5.4,0 0,-11.65505 c 0,-0.6 -0.1,-1.1 -0.3,-1.2 -0.2,-0.2 -0.5,-0.3 -1.1,-0.3 l -0.5,0 0,13.15505 -5.3,0 z m 5.3,-26.95505 0,9.5 c 0.1,0 0.3,0.1 0.4,0.1 0.6,0 1,-0.1 1.1,-0.4 0.1,-0.3 0.3,-0.8 0.3,-1.7 l 0,-5.6 c 0,-0.7 -0.1,-1.2 -0.3,-1.4 -0.1,-0.3 -0.5,-0.4 -0.9,-0.4 l -0.6,0 z"
     inkscape:connector-curvature="0"
     style="fill:#efefef"
     sodipodi:nodetypes="ccssccsssccsccscsccccccsssscscc" /></svg>