<?xml version="1.0" encoding="utf-8"?>
<!-- Generator: Adobe Illustrator 19.0.0, SVG Export Plug-In . SVG Version: 6.00 Build 0)  -->
<svg version="1.1" id="Layer_1" xmlns="http://www.w3.org/2000/svg" xmlns:xlink="http://www.w3.org/1999/xlink" x="0px" y="0px"
	 viewBox="-205 372.4 129 31.2" style="enable-background:new -205 372.4 129 31.2;" xml:space="preserve">
<style type="text/css">
	.st0{fill:#EFEFEF;}
</style>
<path id="XMLID_125_" class="st0" d="M-202,403.5v-26.9h-3v-4.3h11.1v4.3h-2.9v26.9H-202z"/>
<path id="XMLID_129_" class="st0" d="M-192.9,403.5v-31.1h7.1c1.2,0,2,0.1,2.6,0.2s1.1,0.4,1.4,0.8c0.5,0.5,0.9,1.1,1.1,1.7
	s0.3,1.8,0.3,3.3v5.6c0,1.2-0.1,2.2-0.4,2.7c-0.3,0.5-0.9,1.1-1.8,1.5c0.8,0.3,1.4,0.7,1.8,1.3c0.3,0.6,0.5,1.4,0.5,2.6v11.5h-5.4
	v-11.7c0-0.6-0.1-1.1-0.3-1.2s-0.5-0.3-1.1-0.3h-0.5v13.2H-192.9z M-187.6,376.6v9.5c0.1,0,0.3,0.1,0.4,0.1c0.6,0,1-0.1,1.1-0.4
	s0.3-0.8,0.3-1.7v-5.6c0-0.7-0.1-1.2-0.3-1.4c-0.1-0.3-0.5-0.4-0.9-0.4H-187.6z"/>
<path id="XMLID_130_" class="st0" d="M-179.6,403.5l2.6-31.1h7.2l3.4,31.1h-5.3l-0.4-6.5h-2.4l-0.4,6.5H-179.6z M-174.3,392.9h1.8
	l-1.1-14.6L-174.3,392.9z"/>
<path id="XMLID_128_" class="st0" d="M-165.8,403.5v-31.1h5.3v31.1H-165.8z"/>
<path id="XMLID_126_" class="st0" d="M-150.7,399.3v4.2h-8.5v-31.1h5.3v26.9H-150.7z"/>
<path id="XMLID_141_" class="st0" d="M-147.5,403.5l-5.5-31.1h6.3c1.6,0,2.7,0.1,3.3,0.3c0.7,0.1,1.2,0.5,1.8,1
	c0.5,0.5,0.9,0.9,1.2,1.5c0.3,0.6,0.5,1.5,0.7,2.8l0.9,4.9c0.2,1.1,0.2,1.9,0,2.5s-0.7,1.1-1.4,1.6c0.9,0.3,1.6,0.8,2,1.4
	s0.7,1.5,1,2.8l1.3,7.6c0.2,1.2,0.2,2.2,0,2.8c-0.2,0.7-0.7,1.2-1.4,1.5c-0.7,0.3-1.7,0.5-3,0.5
	C-140.3,403.5-147.5,403.5-147.5,403.5z M-145.4,384.7l0.5,0.1c0.4,0,0.7-0.1,0.8-0.1c0.1-0.1,0.3-0.2,0.3-0.5
	c0.1-0.2,0-0.6-0.1-1.1l-0.8-4.6c-0.1-0.9-0.3-1.4-0.5-1.6c-0.2-0.3-0.6-0.3-1.2-0.3h-0.5L-145.4,384.7z M-144.7,389l1.8,10.4
	c0.1,0,0.4,0.1,0.6,0.1c0.5,0,0.9-0.1,0.9-0.3c0.1-0.2,0.1-0.7-0.1-1.4l-1.2-6.8c-0.1-0.9-0.3-1.4-0.5-1.6s-0.6-0.3-1.2-0.3
	C-144.4,389-144.7,389-144.7,389z"/>
<path id="XMLID_124_" class="st0" d="M-126.1,399.3v4.2h-8.5v-31.1h5.3v26.9H-126.1z"/>
<path id="XMLID_136_" class="st0" d="M-125.3,403.5l2.6-31.1h7.2l3.4,31.1h-5.3l-0.4-6.5h-2.4l-0.4,6.5H-125.3z M-120,392.9h1.8
	l-1.1-14.6L-120,392.9z"/>
<path id="XMLID_134_" class="st0" d="M-112.5,403.5v-3.8l5.4-23h-4.9v-4.3h10.3v4.1l-5.4,22.9h5.4v4.2H-112.5z"/>
<path id="XMLID_132_" class="st0" d="M-100.6,403.5v-31.1h8.7v4.3h-3.3v7.8h3.3v4.2h-3.3v10.8h3.3v4.1L-100.6,403.5L-100.6,403.5z"
	/>
<path id="XMLID_127_" class="st0" d="M-90.9,403.5v-31.1h7.1c1.2,0,2,0.1,2.6,0.2s1.1,0.4,1.4,0.8c0.5,0.5,0.9,1.1,1.1,1.7
	c0.2,0.7,0.3,1.8,0.3,3.3v5.6c0,1.2-0.1,2.2-0.4,2.7c-0.3,0.5-0.9,1.1-1.8,1.5c0.8,0.3,1.4,0.7,1.8,1.3c0.3,0.6,0.5,1.4,0.5,2.6
	v11.5h-5.4v-11.7c0-0.6-0.1-1.1-0.3-1.2c-0.2-0.2-0.5-0.3-1.1-0.3h-0.5v13.2H-90.9z M-85.6,376.6v9.5c0.1,0,0.3,0.1,0.4,0.1
	c0.6,0,1-0.1,1.1-0.4c0.1-0.3,0.3-0.8,0.3-1.7v-5.6c0-0.7-0.1-1.2-0.3-1.4c-0.1-0.3-0.5-0.4-0.9-0.4H-85.6z"/>
</svg>
