<?xml version="1.0" encoding="utf-8"?>
<!-- Generator: Adobe Illustrator 16.0.0, SVG Export Plug-In . SVG Version: 6.00 Build 0)  -->
<!DOCTYPE svg PUBLIC "-//W3C//DTD SVG 1.1//EN" "http://www.w3.org/Graphics/SVG/1.1/DTD/svg11.dtd">
<svg version="1.1" id="Layer_1" xmlns="http://www.w3.org/2000/svg" xmlns:xlink="http://www.w3.org/1999/xlink" x="0px" y="0px"
	 width="100px" height="24.083px" viewBox="0 0 100 24.083" enable-background="new 0 0 100 24.083" xml:space="preserve">
<path fill="#4D4D4D" d="M2.28,24.083V3.314H0.006V0h8.603v3.314H6.371v20.769H2.28z"/>
<path fill="#4D4D4D" d="M9.402,24.083V0h5.501c0.906,0,1.575,0.055,2.01,0.167c0.434,0.112,0.811,0.309,1.128,0.591
	c0.4,0.353,0.667,0.793,0.802,1.322c0.135,0.528,0.203,1.399,0.203,2.609v4.302c0,0.976-0.108,1.663-0.326,2.063
	c-0.217,0.399-0.696,0.793-1.437,1.182c0.635,0.211,1.087,0.546,1.357,1.004c0.27,0.458,0.405,1.111,0.405,1.957v8.886h-4.143
	v-8.991c0-0.481-0.073-0.809-0.22-0.979c-0.147-0.17-0.414-0.256-0.802-0.256h-0.353v10.226H9.402z M13.528,3.244v7.299
	c0.094,0.023,0.2,0.035,0.317,0.035c0.458,0,0.75-0.093,0.873-0.282c0.124-0.188,0.185-0.623,0.185-1.305V4.654
	c0-0.553-0.062-0.926-0.185-1.12c-0.124-0.194-0.35-0.291-0.679-0.291H13.528z"/>
<path fill="#4D4D4D" d="M19.945,24.083L21.938,0h5.553l2.645,24.083h-4.09l-0.317-5.024h-1.851l-0.317,5.024H19.945z M24.054,15.849
	h1.445L24.635,4.584L24.054,15.849z"/>
<path fill="#4D4D4D" d="M31.141,24.083V0h4.125v24.083H31.141z"/>
<path fill="#4D4D4D" d="M43.276,20.838v3.245h-6.611V0h4.055v20.838H43.276z"/>
<path fill="#4D4D4D" d="M45.734,24.083L41.489,0h4.883c1.223,0,2.088,0.062,2.598,0.186c0.509,0.123,0.985,0.372,1.428,0.749
	c0.4,0.341,0.698,0.729,0.892,1.164c0.193,0.435,0.379,1.146,0.553,2.133l0.675,3.826c0.146,0.835,0.145,1.472-0.006,1.913
	c-0.152,0.441-0.528,0.861-1.127,1.261c0.69,0.258,1.197,0.614,1.519,1.066c0.321,0.453,0.567,1.167,0.739,2.143l1.038,5.888
	c0.162,0.917,0.162,1.651,0.001,2.204s-0.514,0.949-1.06,1.19c-0.545,0.239-1.329,0.361-2.352,0.361H45.734z M47.295,9.538
	l0.429,0.035c0.293,0,0.497-0.029,0.61-0.088s0.184-0.176,0.211-0.353c0.028-0.177,0.01-0.44-0.052-0.793L47.863,4.76
	c-0.113-0.646-0.249-1.06-0.404-1.243s-0.463-0.273-0.92-0.273h-0.353L47.295,9.538z M47.88,12.852l1.415,8.023
	c0.121,0.022,0.281,0.034,0.481,0.034c0.399,0,0.64-0.085,0.722-0.255c0.082-0.171,0.072-0.545-0.029-1.12l-0.924-5.236
	c-0.114-0.646-0.244-1.049-0.39-1.208c-0.145-0.158-0.465-0.238-0.959-0.238H47.88z"/>
<path fill="#4D4D4D" d="M62.229,20.838v3.245h-6.611V0h4.056v20.838H62.229z"/>
<path fill="#4D4D4D" d="M62.855,24.083L64.848,0h5.554l2.645,24.083h-4.091l-0.316-5.024h-1.852l-0.317,5.024H62.855z
	 M66.963,15.849h1.445L67.546,4.584L66.963,15.849z"/>
<path fill="#4D4D4D" d="M72.742,24.083v-2.962L76.903,3.35h-3.79V0h7.968v3.173l-4.178,17.665h4.178v3.245H72.742z"/>
<path fill="#4D4D4D" d="M82.255,24.083V0h6.682v3.279h-2.592v6.065h2.592v3.226h-2.592v8.305h2.592v3.208H82.255z"/>
<path fill="#4D4D4D" d="M90.356,24.083V0h5.501c0.904,0,1.575,0.055,2.01,0.167c0.435,0.112,0.811,0.309,1.129,0.591
	c0.399,0.353,0.667,0.793,0.801,1.322C99.932,2.608,100,3.479,100,4.689v4.302c0,0.976-0.108,1.663-0.326,2.063
	c-0.218,0.399-0.695,0.793-1.438,1.182c0.635,0.211,1.088,0.546,1.358,1.004c0.271,0.458,0.405,1.111,0.405,1.957v8.886h-4.143
	v-8.991c0-0.481-0.074-0.809-0.222-0.979c-0.146-0.17-0.413-0.256-0.801-0.256h-0.354v10.226H90.356z M94.481,3.244v7.299
	c0.095,0.023,0.201,0.035,0.317,0.035c0.458,0,0.749-0.093,0.873-0.282c0.123-0.188,0.186-0.623,0.186-1.305V4.654
	c0-0.553-0.062-0.926-0.186-1.12c-0.124-0.194-0.351-0.291-0.679-0.291H94.481z"/>
</svg>
