<?xml version="1.0" encoding="utf-8"?>
<!-- Generator: Adobe Illustrator 16.0.0, SVG Export Plug-In . SVG Version: 6.00 Build 0)  -->
<!DOCTYPE svg PUBLIC "-//W3C//DTD SVG 1.1//EN" "http://www.w3.org/Graphics/SVG/1.1/DTD/svg11.dtd">
<svg version="1.1" id="Layer_1" xmlns="http://www.w3.org/2000/svg" xmlns:xlink="http://www.w3.org/1999/xlink" x="0px" y="0px"
	 width="140px" height="140px" viewBox="0 0 140 140" enable-background="new 0 0 140 140" xml:space="preserve">
<circle fill="#1E1E1F" cx="70.071" cy="70.071" r="70.071"/>
<g>
	<path fill="#23E5C9" d="M74.359,106.001c-5.664,0-5.25,0-11.103,0L31.25,73.996c0.001-5.911,0.001-3.375,0-11.102l32.012-32.011
		c5.294,0,5.113,0,10.921,0l32.186,32.712c0,6.344,0,2.123,0,10.396L74.359,106.001z"/>
	<g>
		<polygon fill="#0E8E72" points="31.3,74.01 63.2,105.91 68.789,68.427 		"/>
		<path fill="#09705A" d="M74.367,105.99c0.002-0.002,0.002,0,0.004,0l31.979-31.982c0-0.012,0-0.023,0-0.037l-37.561-5.544
			L74.367,105.99z"/>
		<polygon fill="#17C2AA" points="63.266,30.966 31.313,62.921 68.802,68.431 		"/>
		<path fill="#26B89F" d="M63.26,30.969l5.51,37.489l5.634-37.496"/>
		<path fill="#26B89F" d="M106.35,73.971c0-5.492,0-5.873,0-11.052l-37.561,5.508L106.35,73.971z"/>
		<path fill="#26B89F" d="M31.299,62.917c0,8.95,0,3.239,0,11.093H31.3l37.489-5.583L31.299,62.917z"/>
		<path fill="#21A58C" d="M74.367,105.99l-5.578-37.563L63.2,105.91l0.078,0.08C69.424,105.99,67.576,105.988,74.367,105.99z"/>
		<polygon fill="#1BD5BF" points="106.361,62.928 74.398,30.963 68.5,69.191 		"/>
	</g>
	<path fill="#23E5C9" d="M71.74,88.439c-3.012,0-2.792,0-5.904,0L48.812,71.417c0-3.144,0-1.795,0-5.904l17.026-17.025
		c2.815,0,2.72,0,5.809,0l17.119,17.398c0,3.374,0,1.129,0,5.529L71.74,88.439z"/>
</g>
</svg>
