<?xml version="1.0" encoding="utf-8"?>
<!-- Generator: Adobe Illustrator 16.0.0, SVG Export Plug-In . SVG Version: 6.00 Build 0)  -->
<!DOCTYPE svg PUBLIC "-//W3C//DTD SVG 1.1//EN" "http://www.w3.org/Graphics/SVG/1.1/DTD/svg11.dtd">
<svg version="1.1" id="Layer_1" xmlns="http://www.w3.org/2000/svg" xmlns:xlink="http://www.w3.org/1999/xlink" x="0px" y="0px"
	 width="140px" height="140px" viewBox="0 0 140 140" enable-background="new 0 0 140 140" xml:space="preserve">
<circle fill="#1E1E1F" cx="70.019" cy="69.477" r="70.105"/>
<g>
	<polygon fill="#ED2493" points="45.99,100.738 31.136,55.021 70.025,26.766 108.914,55.021 94.059,100.738 	"/>
	<g>
		<polygon fill="#FE8AD5" points="109.046,55.005 109.05,54.99 70,26.766 70,63.8 		"/>
		<polygon fill="#F659B3" points="70,26.767 31.154,54.99 70,63.801 		"/>
		<polygon fill="#F04694" points="31.077,55.007 45.946,100.768 69.923,63.817 		"/>
		<polygon fill="#DC197A" points="45.946,100.768 45.953,100.794 93.934,100.794 69.923,63.817 		"/>
		<polygon fill="#F04694" points="108.969,55.022 69.923,63.817 93.934,100.794 94.096,100.794 		"/>
	</g>
	<polygon fill="#ED2493" points="55.787,85.623 47.003,58.589 70,41.881 92.996,58.589 84.212,85.623 	"/>
</g>
</svg>
