<?xml version="1.0" encoding="utf-8"?>
<!-- Generator: Adobe Illustrator 16.0.0, SVG Export Plug-In . SVG Version: 6.00 Build 0)  -->
<!DOCTYPE svg PUBLIC "-//W3C//DTD SVG 1.1//EN" "http://www.w3.org/Graphics/SVG/1.1/DTD/svg11.dtd">
<svg version="1.1" id="Layer_1" xmlns="http://www.w3.org/2000/svg" xmlns:xlink="http://www.w3.org/1999/xlink" x="0px" y="0px"
	 width="140px" height="140px" viewBox="0 0 140 140" enable-background="new 0 0 140 140" xml:space="preserve">
<circle fill="#1E1E1F" cx="69.876" cy="69.876" r="69.876"/>
<g>
	<polygon fill="#10A6F7" points="30.72,70.069 42.32,42.131 70.142,30.6 97.367,42.534 108.566,70.139 97.6,97.445 69.982,108.781 
		41.92,97.18 	"/>
	<g>
		<polygon fill="none" stroke="#23E5C9" stroke-miterlimit="10" points="69.876,70.025 69.941,70.025 69.876,69.961 		"/>
		<polygon fill="#0F9FF6" points="97.589,42.215 70.005,30.683 69.876,30.735 69.876,69.927 		"/>
		<polygon fill="#16C1F9" points="69.876,69.961 69.941,70.025 109.061,70.025 109.068,70.005 97.682,42.253 97.589,42.215 
			69.876,69.927 		"/>
		<polygon fill="none" stroke="#23E5C9" stroke-miterlimit="10" points="69.859,69.943 69.777,70.025 69.876,70.025 69.876,69.961 
					"/>
		<polygon fill="none" stroke="#23E5C9" stroke-miterlimit="10" points="69.876,69.927 69.859,69.943 69.876,69.961 		"/>
		<polygon fill="#0F9FF6" points="69.777,70.025 42.236,97.566 69.747,109.068 69.876,109.016 69.876,70.025 		"/>
		<polygon fill="#4ADCF4" points="69.876,69.927 69.876,30.735 42.253,42.071 42.174,42.259 69.859,69.943 		"/>
		<polygon fill="#4ADCF4" points="69.941,70.025 97.527,97.611 109.061,70.025 		"/>
		<polygon fill="#10A6F7" points="69.876,70.025 69.876,109.016 97.499,97.682 97.527,97.611 69.941,70.025 		"/>
		<polygon fill="#10A6F7" points="30.797,70.025 42.071,97.499 42.236,97.566 69.777,70.025 		"/>
		<polygon fill="#16C1F9" points="69.859,69.943 42.174,42.259 30.683,69.746 30.797,70.025 69.777,70.025 		"/>
	</g>
	<polygon fill="#65EAFC" points="49.499,69.985 55.49,55.556 69.859,49.601 83.921,55.764 89.705,70.021 84.041,84.125 
		69.777,89.979 55.284,83.986 	"/>
</g>
</svg>
