<?xml version="1.0" encoding="utf-8"?>
<!-- Generator: Adobe Illustrator 16.0.0, SVG Export Plug-In . SVG Version: 6.00 Build 0)  -->
<!DOCTYPE svg PUBLIC "-//W3C//DTD SVG 1.1//EN" "http://www.w3.org/Graphics/SVG/1.1/DTD/svg11.dtd">
<svg version="1.1" id="Layer_1" xmlns="http://www.w3.org/2000/svg" xmlns:xlink="http://www.w3.org/1999/xlink" x="0px" y="0px"
	 width="140px" height="140px" viewBox="0 0 140 140" enable-background="new 0 0 140 140" xml:space="preserve">
<circle fill="#1E1E1F" cx="70.063" cy="70.259" r="70.043"/>
<g>
	<polygon fill="#F07800" points="100.932,91.534 70.001,109.919 39.073,91.534 39.073,48.875 70.001,30.49 100.932,48.875 	"/>
	<g>
		<polygon fill="#F07800" points="70.064,70.249 101.005,70.249 101.005,48.395 100.904,48.333 70.064,70.204 		"/>
		<polygon fill="#EF6C00" points="100.904,48.333 70.064,29.556 70.064,70.204 		"/>
		<polygon fill="none" points="70.064,70.291 70.064,70.249 70.001,70.249 		"/>
		<polygon fill="none" points="70.001,70.248 70.001,70.249 70.064,70.249 70.064,70.204 		"/>
		<polygon fill="#F4A608" points="70.064,70.204 70.064,29.556 39.14,48.384 70.001,70.248 		"/>
		<polygon fill="none" points="70.001,70.249 70.001,70.249 70.001,70.248 		"/>
		<polygon fill="#F4A608" points="101.005,70.249 70.064,70.249 70.064,70.291 100.921,92.152 101.005,92.102 		"/>
		<polygon fill="#F09000" points="70.064,110.939 100.921,92.152 70.064,70.291 		"/>
		<polygon fill="#F07800" points="39.123,70.249 39.123,92.102 39.158,92.122 70.001,70.249 		"/>
		<polygon fill="#EF6C00" points="70.001,70.27 70.001,70.27 39.158,92.145 70.064,110.962 70.064,70.313 		"/>
		<polygon fill="#EF8800" points="70.001,70.248 39.14,48.384 39.123,48.395 39.123,70.249 70.001,70.249 		"/>
	</g>
	<polygon fill="#F2B00A" points="88.988,83.299 70.001,94.585 51.015,83.299 51.015,57.11 70.001,45.824 88.988,57.11 	"/>
</g>
</svg>
