<?xml version="1.0" encoding="utf-8"?>
<!-- Generator: Adobe Illustrator 16.0.0, SVG Export Plug-In . SVG Version: 6.00 Build 0)  -->
<!DOCTYPE svg PUBLIC "-//W3C//DTD SVG 1.1//EN" "http://www.w3.org/Graphics/SVG/1.1/DTD/svg11.dtd">
<svg version="1.1" id="Capa_1" xmlns="http://www.w3.org/2000/svg" xmlns:xlink="http://www.w3.org/1999/xlink" x="0px" y="0px"
	 width="51.609px" height="50px" viewBox="0 0 51.609 50" enable-background="new 0 0 51.609 50" xml:space="preserve">
<g>
	<path fill="#232324" d="M25,0C11.193,0,0,11.193,0,25c0,13.807,11.192,25,25,25c13.807,0,25-11.193,25-25C50,11.193,38.807,0,25,0z
		 M36.932,18.873l0.021,0.797c0,8.139-6.194,17.525-17.524,17.525c-3.479,0-6.716-1.021-9.442-2.771
		c0.482,0.055,0.973,0.084,1.47,0.084c2.885,0,5.542-0.98,7.648-2.632c-2.693-0.049-4.968-1.829-5.752-4.278
		c0.377,0.075,0.763,0.114,1.16,0.114c0.562,0,1.106-0.076,1.623-0.216c-2.816-0.566-4.94-3.056-4.94-6.039V21.38
		c0.831,0.461,1.78,0.739,2.79,0.772c-1.65-1.103-2.738-2.989-2.738-5.126c0-1.129,0.302-2.188,0.833-3.096
		c3.038,3.727,7.576,6.179,12.694,6.436c-0.104-0.45-0.159-0.921-0.159-1.403c0-3.399,2.758-6.158,6.159-6.158
		c1.773,0,3.372,0.747,4.496,1.946c1.403-0.278,2.722-0.79,3.914-1.496c-0.462,1.435-1.436,2.643-2.708,3.405
		c1.246-0.148,2.433-0.48,3.537-0.97C39.189,16.926,38.143,18.01,36.932,18.873z"/>
</g>
</svg>
