<?xml version="1.0" encoding="utf-8"?>
<!-- Generator: Adobe Illustrator 16.0.0, SVG Export Plug-In . SVG Version: 6.00 Build 0)  -->
<!DOCTYPE svg PUBLIC "-//W3C//DTD SVG 1.1//EN" "http://www.w3.org/Graphics/SVG/1.1/DTD/svg11.dtd">
<svg version="1.1" id="Capa_1" xmlns="http://www.w3.org/2000/svg" xmlns:xlink="http://www.w3.org/1999/xlink" x="0px" y="0px"
	 width="30px" height="30px" viewBox="0 0 30 30" enable-background="new 0 0 30 30" xml:space="preserve">
<g>
	<g>
		<g>
			<path fill="#5E6053" d="M24.135-0.186H5.569C2.493-0.186,0,2.307,0,5.383v18.566c0,3.076,2.493,5.568,5.569,5.568h18.565
				c3.076,0,5.568-2.492,5.568-5.568V5.383C29.703,2.307,27.211-0.186,24.135-0.186z M22.242,11.332l0.01,0.474
				c0,4.833-3.678,10.403-10.404,10.403c-2.064,0-3.986-0.605-5.604-1.643c0.285,0.033,0.577,0.051,0.872,0.051
				c1.714,0,3.29-0.583,4.542-1.564c-1.601-0.029-2.95-1.087-3.417-2.541c0.225,0.042,0.451,0.065,0.689,0.065
				c0.334,0,0.657-0.044,0.964-0.127C8.22,16.112,6.96,14.636,6.96,12.865v-0.046c0.494,0.274,1.056,0.438,1.656,0.458
				c-0.98-0.655-1.626-1.774-1.626-3.043c0-0.669,0.18-1.298,0.494-1.837c1.803,2.212,4.499,3.668,7.538,3.82
				c-0.063-0.268-0.095-0.547-0.095-0.833c0-2.019,1.636-3.655,3.658-3.655c1.051,0,2,0.443,2.668,1.154
				c0.832-0.166,1.617-0.469,2.322-0.887c-0.271,0.854-0.85,1.571-1.605,2.023c0.736-0.087,1.443-0.285,2.098-0.576
				C23.578,10.175,22.955,10.819,22.242,11.332z"/>
		</g>
	</g>
</g>
</svg>
