<?xml version="1.0" encoding="utf-8"?>
<!-- Generator: Adobe Illustrator 16.0.0, SVG Export Plug-In . SVG Version: 6.00 Build 0)  -->
<!DOCTYPE svg PUBLIC "-//W3C//DTD SVG 1.1//EN" "http://www.w3.org/Graphics/SVG/1.1/DTD/svg11.dtd">
<svg version="1.1" id="Capa_1" xmlns="http://www.w3.org/2000/svg" xmlns:xlink="http://www.w3.org/1999/xlink" x="0px" y="0px"
	 width="51.61px" height="50px" viewBox="0 0 51.61 50" enable-background="new 0 0 51.61 50" xml:space="preserve">
<circle fill="#232324" cx="25" cy="25" r="25"/>
<g>
	<g>
		<path fill="#55ACEE" d="M40.014,15.69c-1.105,0.49-2.291,0.822-3.537,0.97c1.272-0.762,2.246-1.97,2.708-3.405
			c-1.193,0.706-2.511,1.218-3.914,1.496c-1.124-1.199-2.723-1.946-4.496-1.946c-3.402,0-6.16,2.759-6.16,6.158
			c0,0.482,0.055,0.953,0.16,1.403c-5.119-0.257-9.657-2.709-12.695-6.436c-0.531,0.908-0.833,1.967-0.833,3.096
			c0,2.137,1.088,4.023,2.739,5.126c-1.01-0.033-1.959-0.311-2.79-0.772v0.077c0,2.983,2.124,5.473,4.94,6.039
			c-0.517,0.14-1.061,0.216-1.623,0.216c-0.398,0-0.783-0.039-1.16-0.114c0.784,2.449,3.058,4.229,5.752,4.278
			c-2.107,1.651-4.764,2.632-7.649,2.632c-0.497,0-0.987-0.029-1.469-0.084c2.726,1.751,5.963,2.771,9.442,2.771
			c11.33,0,17.524-9.386,17.524-17.525l-0.021-0.797C38.143,18.01,39.189,16.926,40.014,15.69z"/>
	</g>
</g>
</svg>
